{"title":"18+ Zombie Dollz 2015 Movies HDRip XviD AAC ~ â˜»rDXâ˜»","uid":11825017,"size":738509172,"categoryP":"video","categoryS":"movies","magnet":"?xt=urn:btih:972559c2192b33b0ec6337eb68dcf24e3b9f6ade&amp;dn=18%2B+Zombie+Dollz+2015+Movies+HDRip+XviD+AAC+%7E+%E2%98%BBrDX%E2%98%BB&amp;tr=udp%3A%2F%2Ftracker.openbittorrent.com%3A80&amp;tr=udp%3A%2F%2Fopen.demonii.com%3A1337&amp;tr=udp%3A%2F%2Ftracker.coppersurfer.tk%3A6969&amp;tr=udp%3A%2F%2Fexodus.desync.com%3A6969","seeders":2,"leechers":3,"uploader":"basicssom","files":1,"time":1429449698,"description":"----------------------------------------------------------------\n18+ Zombie Dollz 2015 Movies HDRip XviD AAC ~ â˜»rDXâ˜»\n\nSCREEN SHOTS &amp; POSTER:\n &lt;a href=&quot;\nhttp://postimage.co.nr/2015/4/ZombieDollz/11.html&quot; rel=&quot;nofollow&quot; target=&quot;_NEW&quot;&gt;\nhttp://postimage.co.nr/2015/4/ZombieDollz/11.html&lt;/a&gt; &lt;a href=&quot;\nhttp://postimage.co.nr/2015/4/ZombieDollz/1.html&quot; rel=&quot;nofollow&quot; target=&quot;_NEW&quot;&gt;\nhttp://postimage.co.nr/2015/4/ZombieDollz/1.html&lt;/a&gt; &lt;a href=&quot;\nhttp://postimage.co.nr/2015/4/ZombieDollz/2.html&quot; rel=&quot;nofollow&quot; target=&quot;_NEW&quot;&gt;\nhttp://postimage.co.nr/2015/4/ZombieDollz/2.html&lt;/a&gt; &lt;a href=&quot;\nhttp://postimage.co.nr/2015/4/ZombieDollz/3.html&quot; rel=&quot;nofollow&quot; target=&quot;_NEW&quot;&gt;\nhttp://postimage.co.nr/2015/4/ZombieDollz/3.html&lt;/a&gt; &lt;a href=&quot;\nhttp://postimage.co.nr/2015/4/ZombieDollz/4.html&quot; rel=&quot;nofollow&quot; target=&quot;_NEW&quot;&gt;\nhttp://postimage.co.nr/2015/4/ZombieDollz/4.html&lt;/a&gt; &lt;a href=&quot;\nhttp://postimage.co.nr/2015/4/ZombieDollz/5.html&quot; rel=&quot;nofollow&quot; target=&quot;_NEW&quot;&gt;\nhttp://postimage.co.nr/2015/4/ZombieDollz/5.html&lt;/a&gt; &lt;a href=&quot;\nhttp://postimage.co.nr/2015/4/ZombieDollz/6.html&quot; rel=&quot;nofollow&quot; target=&quot;_NEW&quot;&gt;\nhttp://postimage.co.nr/2015/4/ZombieDollz/6.html&lt;/a&gt; &lt;a href=&quot;\nhttp://postimage.co.nr/2015/4/ZombieDollz/7.html&quot; rel=&quot;nofollow&quot; target=&quot;_NEW&quot;&gt;\nhttp://postimage.co.nr/2015/4/ZombieDollz/7.html&lt;/a&gt; &lt;a href=&quot;\nhttp://postimage.co.nr/2015/4/ZombieDollz/8.html&quot; rel=&quot;nofollow&quot; target=&quot;_NEW&quot;&gt;\nhttp://postimage.co.nr/2015/4/ZombieDollz/8.html&lt;/a&gt; &lt;a href=&quot;\nhttp://postimage.co.nr/2015/4/ZombieDollz/9.html&quot; rel=&quot;nofollow&quot; target=&quot;_NEW&quot;&gt;\nhttp://postimage.co.nr/2015/4/ZombieDollz/9.html&lt;/a&gt; &lt;a href=&quot;\nhttp://postimage.co.nr/2015/4/ZombieDollz/10.html&quot; rel=&quot;nofollow&quot; target=&quot;_NEW&quot;&gt;\nhttp://postimage.co.nr/2015/4/ZombieDollz/10.html&lt;/a&gt;\n\nFormat                                   : iso4\nCodec ID                                 : iso4\nFile size                                : 704 MiB\nDuration                                 : 54mn 10s\nOverall bit rate mode                    : Variable\nOverall bit rate                         : 1 818 Kbps\nEncoded date                             : UTC 2015-03-21 19:18:24\nTagged date                              : UTC 2015-03-21 19:18:24\n\nVideo\nID                                       : 1\nFormat                                   : hvc1\nCodec ID                                 : hvc1\nDuration                                 : 54mn 10s\nBit rate                                 : 894 Kbps\nMaximum bit rate                         : 3 987 Kbps\nWidth                                    : 704 pixels\nHeight                                   : 396 pixels\nDisplay aspect ratio                     : 16:9\nFrame rate mode                          : Constant\nFrame rate                               : 29.970 fps\nBits/(Pixel*Frame)                       : 0.107\nStream size                              : 346 MiB (49%)\nEncoded date                             : UTC 2015-03-21 19:18:24\nTagged date                              : UTC 2015-03-21 19:18:34\n\nAudio\nID                                       : 2\nFormat                                   : AAC\nFormat/Info                              : Advanced Audio Codec\nFormat profile                           : HE-AACv2 / HE-AAC / LC\nCodec ID                                 : 40\nDuration                                 : 54mn 10s\nBit rate mode                            : Variable\nBit rate                                 : 63.8 Kbps\nMaximum bit rate                         : 71.3 Kbps\nChannel(s)                               : 2 channels / 1 channel / 1 channel\nChannel positions                        : Front: L R / Front: C / Front: C\nSampling rate                            : 44.1 KHz / 44.1 KHz / 22.05 KHz\nCompression mode                         : Lossy\nDelay relative to video                  : 67ms\nStream size                              : 24.7 MiB (4%)\nEncoded date                             : UTC 2015-03-21 18:44:34\nTagged date                              : UTC 2015-03-21 19:18:34","torrent":{"xt":"urn:btih:972559c2192b33b0ec6337eb68dcf24e3b9f6ade","amp;dn":"18%2B+Zombie+Dollz+2015+Movies+HDRip+XviD+AAC+%7E+%E2%98%BBrDX%E2%98%BB","amp;tr":["udp%3A%2F%2Ftracker.openbittorrent.com%3A80","udp%3A%2F%2Fopen.demonii.com%3A1337","udp%3A%2F%2Ftracker.coppersurfer.tk%3A6969","udp%3A%2F%2Fexodus.desync.com%3A6969"],"infoHash":"972559c2192b33b0ec6337eb68dcf24e3b9f6ade","infoHashBuffer":{"type":"Buffer","data":[151,37,89,194,25,43,51,176,236,99,55,235,104,220,242,78,59,159,106,222]},"announce":[],"urlList":[]}}